<svg id="svg" version="1.1" xmlns="http://www.w3.org/2000/svg" xmlns:xlink="http://www.w3.org/1999/xlink" width="400" height="400" viewBox="0, 0, 400,400"><g id="svgg"><path id="path0" d="M107.600 100.341 C 107.600 100.529,105.671 100.807,103.312 100.959 C 100.954 101.112,98.929 101.390,98.812 101.578 C 98.696 101.765,97.563 102.048,96.295 102.206 C 95.027 102.364,93.891 102.652,93.771 102.847 C 93.651 103.041,93.023 103.200,92.376 103.200 C 91.729 103.200,91.200 103.367,91.200 103.571 C 91.200 103.775,90.210 104.066,89.000 104.217 C 87.790 104.368,86.800 104.649,86.800 104.841 C 86.800 105.033,86.080 105.306,85.200 105.446 C 84.320 105.587,83.600 105.836,83.600 106.000 C 83.600 106.164,82.880 106.413,82.000 106.554 C 81.120 106.694,80.400 106.987,80.400 107.205 C 80.400 107.422,80.130 107.600,79.800 107.600 C 79.470 107.600,79.200 107.757,79.200 107.949 C 79.200 108.141,78.480 108.413,77.600 108.554 C 76.720 108.694,76.000 108.973,76.000 109.173 C 76.000 109.373,75.460 109.655,74.800 109.800 C 74.140 109.945,73.600 110.229,73.600 110.432 C 73.600 110.634,73.352 110.800,73.049 110.800 C 72.746 110.800,72.274 111.070,72.000 111.400 C 71.726 111.730,71.164 112.000,70.751 112.000 C 70.338 112.000,70.000 112.180,70.000 112.400 C 70.000 112.620,69.724 112.800,69.387 112.800 C 69.051 112.800,68.671 113.070,68.545 113.400 C 68.418 113.730,68.064 114.000,67.757 114.000 C 67.451 114.000,67.200 114.177,67.200 114.392 C 67.200 114.608,66.750 114.898,66.200 115.036 C 65.650 115.174,65.200 115.435,65.200 115.616 C 65.200 115.798,64.795 116.073,64.300 116.229 C 63.805 116.384,63.004 116.936,62.519 117.456 C 62.035 117.975,61.530 118.400,61.397 118.400 C 61.265 118.400,60.581 118.939,59.878 119.598 C 59.175 120.257,58.375 120.797,58.100 120.798 C 57.825 120.799,57.600 121.160,57.600 121.600 C 57.600 122.040,57.445 122.400,57.256 122.400 C 57.067 122.400,56.783 129.465,56.625 138.100 C 56.468 146.735,56.307 154.520,56.269 155.400 L 56.200 157.000 61.400 157.254 C 64.260 157.394,69.705 157.529,73.500 157.554 C 77.803 157.583,80.400 157.751,80.400 158.000 C 80.400 158.254,83.400 158.400,88.600 158.400 C 93.328 158.400,96.800 158.244,96.800 158.032 C 96.800 157.829,97.340 157.545,98.000 157.400 C 98.660 157.255,99.200 156.988,99.200 156.806 C 99.200 156.624,100.100 156.351,101.200 156.200 C 102.300 156.049,103.200 155.773,103.200 155.587 C 103.200 155.401,104.460 155.124,106.000 154.973 C 107.540 154.821,108.800 154.540,108.800 154.348 C 108.800 154.157,111.410 154.000,114.600 154.000 C 117.790 154.000,120.400 154.159,120.400 154.354 C 120.400 154.549,121.390 154.832,122.600 154.983 C 123.810 155.134,124.800 155.402,124.800 155.578 C 124.800 155.754,125.520 156.013,126.400 156.154 C 127.280 156.294,128.000 156.573,128.000 156.773 C 128.000 156.973,128.540 157.255,129.200 157.400 C 129.860 157.545,130.400 157.787,130.400 157.937 C 130.400 158.088,131.120 158.523,132.000 158.904 C 132.880 159.286,133.600 159.759,133.600 159.955 C 133.600 160.152,134.050 160.426,134.600 160.564 C 135.150 160.702,135.600 160.992,135.600 161.208 C 135.600 161.423,135.870 161.600,136.200 161.600 C 136.530 161.600,136.801 161.735,136.803 161.900 C 136.804 162.065,137.479 162.646,138.303 163.192 C 139.126 163.737,140.196 164.592,140.681 165.092 C 141.165 165.591,141.668 166.000,141.798 166.000 C 142.084 166.000,143.023 166.753,143.917 167.700 C 144.280 168.085,144.733 168.400,144.922 168.400 C 145.112 168.400,145.879 169.030,146.626 169.800 C 147.374 170.570,148.170 171.200,148.396 171.200 C 148.621 171.200,149.197 171.650,149.675 172.200 C 151.985 174.857,152.000 174.759,152.000 157.200 L 152.000 141.200 170.400 141.200 C 191.829 141.200,190.649 141.533,186.000 136.800 C 184.460 135.232,183.200 133.857,183.200 133.744 C 183.200 133.565,181.617 131.801,180.378 130.600 C 180.152 130.380,179.479 129.678,178.883 129.040 C 178.287 128.402,177.564 127.682,177.275 127.440 C 176.986 127.198,176.266 126.480,175.675 125.845 C 173.423 123.427,172.327 122.400,171.996 122.400 C 171.808 122.400,171.543 122.049,171.406 121.620 C 171.270 121.192,170.763 120.717,170.280 120.565 C 169.796 120.413,169.040 119.909,168.600 119.444 C 168.160 118.980,167.260 118.257,166.600 117.837 C 165.940 117.417,165.256 116.832,165.080 116.537 C 164.904 116.242,164.499 116.000,164.180 116.000 C 163.861 116.000,163.600 115.832,163.600 115.627 C 163.600 115.422,163.195 115.126,162.700 114.970 C 162.205 114.813,161.509 114.351,161.153 113.943 C 160.797 113.534,160.324 113.200,160.102 113.200 C 159.880 113.200,159.489 112.948,159.233 112.639 C 158.977 112.331,158.288 111.958,157.701 111.811 C 157.115 111.664,156.403 111.210,156.117 110.803 C 155.832 110.396,155.059 109.945,154.400 109.800 C 153.740 109.655,153.200 109.390,153.200 109.212 C 153.200 109.033,152.707 108.763,152.104 108.612 C 151.501 108.460,150.916 108.216,150.804 108.068 C 150.454 107.609,147.964 106.400,147.368 106.400 C 147.055 106.400,146.800 106.220,146.800 106.000 C 146.800 105.780,146.485 105.599,146.100 105.598 C 145.715 105.596,144.881 105.324,144.247 104.994 C 143.613 104.663,142.398 104.281,141.547 104.145 C 140.696 104.009,140.000 103.741,140.000 103.549 C 140.000 103.357,139.550 103.200,139.000 103.200 C 138.450 103.200,138.000 103.033,138.000 102.829 C 138.000 102.625,137.010 102.334,135.800 102.183 C 134.590 102.032,133.600 101.765,133.600 101.590 C 133.600 101.415,132.070 101.144,130.200 100.989 C 128.330 100.833,126.800 100.547,126.800 100.353 C 126.800 100.159,122.480 100.000,117.200 100.000 C 111.920 100.000,107.600 100.153,107.600 100.341 M46.329 161.401 C 46.258 163.271,46.335 164.801,46.500 164.801 C 46.665 164.800,46.800 163.270,46.800 161.400 C 46.800 157.007,46.497 157.007,46.329 161.401 M61.600 168.623 C 63.086 168.947,65.126 169.003,64.948 168.716 C 64.841 168.542,63.908 168.421,62.876 168.446 C 61.844 168.472,61.270 168.552,61.600 168.623 M14.909 196.400 C 14.909 197.390,14.987 197.795,15.082 197.300 C 15.178 196.805,15.178 195.995,15.082 195.500 C 14.987 195.005,14.909 195.410,14.909 196.400 M14.800 206.376 C 14.800 207.023,14.942 207.641,15.116 207.748 C 15.290 207.856,15.361 207.327,15.273 206.572 C 15.076 204.891,14.800 204.777,14.800 206.376 " stroke="none" fill="#148cdc" fill-rule="evenodd"></path><path id="path1" d="M228.600 151.889 C 225.080 151.950,221.840 152.166,221.400 152.369 C 220.960 152.572,216.483 152.834,211.452 152.950 C 201.866 153.173,200.800 153.390,200.800 155.124 C 200.800 155.838,201.000 155.568,189.822 169.950 C 184.970 176.192,180.280 182.239,179.400 183.386 C 174.220 190.139,169.357 196.221,169.027 196.359 C 168.292 196.666,164.945 200.604,160.800 206.040 C 159.223 208.108,157.286 210.483,155.991 211.937 C 155.336 212.673,154.800 213.424,154.800 213.606 C 154.800 213.789,154.305 214.459,153.700 215.095 C 153.095 215.731,152.150 216.837,151.600 217.554 C 150.580 218.884,150.258 219.268,147.325 222.662 C 146.404 223.728,145.283 225.050,144.833 225.600 C 144.383 226.150,143.807 226.844,143.552 227.142 C 142.597 228.261,144.534 228.388,162.700 228.394 L 181.200 228.400 181.200 240.176 C 181.200 247.596,181.348 252.044,181.600 252.200 C 181.840 252.349,182.000 255.071,182.000 259.024 C 182.000 262.827,182.157 265.600,182.373 265.600 C 182.845 265.600,185.600 262.263,185.600 261.692 C 185.600 261.458,185.736 261.207,185.903 261.133 C 186.309 260.954,188.800 257.757,188.800 257.414 C 188.800 257.265,189.025 256.892,189.300 256.585 C 190.036 255.764,190.495 255.177,191.789 253.400 C 192.430 252.520,193.145 251.620,193.377 251.400 C 193.751 251.046,196.320 247.367,197.400 245.640 C 197.620 245.288,197.895 244.910,198.010 244.800 C 198.940 243.916,200.800 241.165,200.800 240.674 C 200.800 240.163,208.886 228.925,221.575 211.800 C 223.042 209.820,226.098 205.680,228.367 202.600 C 230.635 199.520,232.818 196.820,233.217 196.600 C 233.907 196.220,236.400 193.067,236.400 192.575 C 236.400 192.447,236.625 192.092,236.900 191.785 C 237.175 191.479,237.625 190.959,237.900 190.631 C 238.285 190.171,238.400 185.605,238.400 170.817 L 238.400 151.600 236.700 151.689 C 235.765 151.738,232.120 151.828,228.600 151.889 M81.192 226.700 C 81.188 226.865,81.121 228.710,81.043 230.800 C 80.966 232.890,80.879 241.485,80.851 249.900 L 80.800 265.200 62.643 265.200 C 42.309 265.200,42.924 265.101,45.550 267.945 C 46.766 269.263,49.472 272.399,50.400 273.566 C 50.510 273.705,51.676 274.714,52.992 275.809 C 54.307 276.904,55.764 278.160,56.230 278.600 C 57.989 280.260,59.533 281.537,60.648 282.251 C 61.282 282.657,62.038 283.217,62.329 283.495 C 62.619 283.773,63.095 284.000,63.386 284.000 C 63.677 284.000,64.018 284.270,64.145 284.600 C 64.271 284.930,64.553 285.200,64.770 285.200 C 64.987 285.200,66.192 285.920,67.449 286.800 C 68.705 287.680,69.958 288.400,70.233 288.400 C 70.508 288.400,70.793 288.548,70.867 288.728 C 70.986 289.021,73.955 290.516,80.840 293.748 C 82.072 294.327,83.377 294.800,83.740 294.800 C 84.103 294.800,84.400 294.969,84.400 295.175 C 84.400 295.382,85.210 295.672,86.200 295.821 C 87.190 295.969,88.000 296.250,88.000 296.445 C 88.000 296.640,88.439 296.800,88.976 296.800 C 89.513 296.800,90.059 296.972,90.189 297.182 C 90.318 297.391,91.499 297.685,92.812 297.833 C 94.125 297.982,95.200 298.244,95.200 298.416 C 95.200 298.588,96.733 298.856,98.606 299.012 C 100.479 299.168,102.110 299.454,102.230 299.648 C 102.510 300.101,124.000 300.112,124.000 299.659 C 124.000 299.471,125.935 299.194,128.300 299.042 C 130.665 298.890,132.660 298.593,132.733 298.383 C 132.807 298.172,133.425 298.000,134.107 298.000 C 135.397 298.000,139.744 296.975,140.815 296.419 C 141.154 296.243,142.189 295.971,143.115 295.814 C 144.042 295.658,144.800 295.366,144.800 295.165 C 144.800 294.964,145.205 294.799,145.700 294.798 C 146.195 294.796,147.116 294.526,147.746 294.198 C 148.376 293.869,149.141 293.600,149.446 293.600 C 149.751 293.600,150.000 293.409,150.000 293.176 C 150.000 292.943,150.155 292.848,150.344 292.965 C 150.735 293.207,152.792 292.340,152.797 291.932 C 152.799 291.784,153.340 291.545,154.000 291.400 C 154.660 291.255,155.200 290.990,155.200 290.812 C 155.200 290.633,155.665 290.370,156.234 290.227 C 156.803 290.084,157.654 289.608,158.126 289.168 C 158.598 288.729,159.393 288.266,159.892 288.141 C 160.391 288.016,160.800 287.753,160.800 287.557 C 160.800 287.360,161.039 287.200,161.330 287.200 C 161.622 287.200,162.283 286.750,162.800 286.200 C 163.317 285.650,163.969 285.200,164.250 285.200 C 164.531 285.200,164.904 284.956,165.080 284.659 C 165.256 284.361,165.597 284.046,165.838 283.959 C 166.302 283.790,169.675 280.955,172.872 278.045 L 174.800 276.291 174.800 255.800 L 174.800 235.309 172.944 235.054 C 169.062 234.522,139.263 234.762,138.920 235.328 C 137.943 236.940,129.384 242.179,126.994 242.627 C 126.227 242.771,125.600 243.022,125.600 243.185 C 125.600 244.183,111.280 245.133,108.536 244.317 C 108.061 244.175,106.801 243.934,105.736 243.779 C 104.671 243.625,103.620 243.365,103.400 243.202 C 103.180 243.038,102.325 242.783,101.500 242.634 C 100.675 242.485,100.000 242.192,100.000 241.982 C 100.000 241.772,99.668 241.600,99.263 241.600 C 98.858 241.600,97.733 241.152,96.763 240.605 C 95.793 240.058,94.730 239.483,94.400 239.328 C 94.070 239.172,93.585 238.855,93.322 238.622 C 93.058 238.390,91.872 237.390,90.685 236.400 C 89.498 235.410,87.913 233.749,87.164 232.709 C 86.414 231.669,85.665 230.814,85.500 230.809 C 85.335 230.804,85.200 230.607,85.200 230.371 C 85.200 230.136,84.975 229.714,84.700 229.435 C 84.425 229.155,83.768 228.358,83.240 227.663 C 82.364 226.509,81.211 225.968,81.192 226.700 " stroke="none" fill="#5cd7cd" fill-rule="evenodd"></path><path id="path2" d="M352.800 135.625 C 352.800 136.203,352.973 139.449,353.185 142.838 C 353.396 146.227,353.640 153.385,353.727 158.745 L 353.884 168.490 352.342 168.283 C 351.494 168.169,350.800 168.228,350.800 168.414 C 350.800 168.600,348.235 168.685,345.100 168.604 C 341.965 168.522,338.545 168.595,337.500 168.764 C 336.206 168.975,335.598 168.934,335.594 168.637 C 335.590 168.379,335.455 168.409,335.264 168.710 C 335.026 169.086,333.040 169.246,327.695 169.319 C 323.709 169.374,320.318 169.549,320.158 169.709 C 319.998 169.869,319.177 170.000,318.333 170.000 C 316.227 170.000,316.346 170.799,318.713 172.536 C 319.765 173.308,321.564 174.989,322.711 176.270 C 325.498 179.384,325.463 179.337,325.778 180.331 C 325.930 180.809,326.207 181.200,326.394 181.200 C 326.581 181.200,327.043 182.010,327.421 183.000 C 327.799 183.990,328.285 184.800,328.501 184.800 C 328.717 184.800,328.807 185.250,328.702 185.800 C 328.597 186.350,328.666 186.800,328.855 186.800 C 329.045 186.800,329.200 187.160,329.200 187.600 C 329.200 188.040,329.355 188.400,329.544 188.400 C 329.734 188.400,330.015 189.345,330.170 190.500 C 330.324 191.655,330.546 193.140,330.662 193.800 C 331.066 196.100,331.276 202.425,330.970 203.110 C 330.801 203.490,330.633 204.160,330.597 204.600 C 330.309 208.061,329.849 210.800,329.553 210.800 C 329.359 210.800,329.200 211.351,329.200 212.024 C 329.200 212.728,329.032 213.144,328.805 213.003 C 328.577 212.862,328.511 213.024,328.649 213.384 C 328.781 213.729,328.663 214.283,328.387 214.616 C 327.686 215.460,327.962 254.348,328.674 255.103 C 329.214 255.675,365.200 255.834,365.200 255.264 C 365.200 255.092,365.567 254.557,366.016 254.075 C 366.464 253.594,366.728 253.200,366.601 253.200 C 366.475 253.200,366.736 252.795,367.181 252.300 C 368.948 250.335,370.400 248.479,370.400 248.184 C 370.400 248.013,371.120 246.919,372.000 245.754 C 372.880 244.588,373.600 243.357,373.600 243.017 C 373.600 242.678,373.780 242.400,374.000 242.400 C 374.220 242.400,374.400 242.195,374.400 241.944 C 374.400 241.436,376.059 237.914,376.446 237.600 C 376.765 237.341,377.382 235.490,377.279 235.100 C 377.236 234.935,377.372 234.800,377.582 234.800 C 377.792 234.800,378.082 234.170,378.226 233.400 C 378.371 232.630,378.649 232.000,378.845 232.000 C 379.040 232.000,379.200 231.550,379.200 231.000 C 379.200 230.450,379.358 230.000,379.550 230.000 C 379.834 230.000,380.303 228.662,380.556 227.133 C 380.580 226.987,380.735 226.732,380.900 226.567 C 381.065 226.402,381.200 225.857,381.200 225.357 C 381.200 224.857,381.370 224.342,381.577 224.214 C 381.784 224.086,382.077 223.131,382.227 222.091 C 382.378 221.051,382.634 220.020,382.797 219.800 C 382.960 219.580,383.066 218.892,383.032 218.271 C 382.998 217.650,383.113 217.054,383.286 216.947 C 383.458 216.840,383.600 215.989,383.600 215.056 C 383.600 214.123,383.825 213.135,384.100 212.860 C 384.848 212.112,384.797 189.961,384.046 189.055 C 383.736 188.682,383.580 187.821,383.675 187.012 C 383.764 186.242,383.691 185.564,383.510 185.503 C 383.330 185.443,383.157 184.713,383.126 183.880 C 383.095 183.048,382.919 182.273,382.735 182.160 C 382.551 182.046,382.400 181.434,382.400 180.800 C 382.400 180.166,382.244 179.551,382.054 179.433 C 381.863 179.315,381.794 178.765,381.900 178.210 C 382.013 177.618,381.908 177.200,381.647 177.200 C 381.401 177.200,381.200 176.671,381.200 176.024 C 381.200 175.377,381.030 174.742,380.823 174.614 C 380.616 174.486,380.325 173.576,380.178 172.591 C 380.030 171.606,379.750 170.800,379.555 170.800 C 379.360 170.800,379.200 170.282,379.200 169.649 C 379.200 169.016,378.930 168.274,378.600 168.000 C 378.270 167.726,377.994 167.119,377.987 166.651 C 377.980 166.183,377.710 165.451,377.387 165.024 C 377.064 164.596,376.800 163.911,376.800 163.500 C 376.800 163.089,376.620 162.864,376.400 163.000 C 376.180 163.136,376.000 163.045,376.000 162.798 C 376.000 162.113,374.008 157.889,373.325 157.125 C 372.993 156.754,372.857 156.231,373.023 155.963 C 373.215 155.653,373.156 155.580,372.862 155.762 C 372.588 155.931,372.400 155.793,372.400 155.424 C 372.400 155.081,372.265 154.798,372.100 154.796 C 371.935 154.793,371.184 153.722,370.432 152.414 C 369.679 151.107,368.914 150.130,368.732 150.242 C 368.549 150.355,368.400 150.186,368.400 149.866 C 368.400 149.546,367.905 148.718,367.300 148.026 C 366.695 147.334,365.750 146.216,365.200 145.543 C 364.650 144.869,363.900 143.991,363.533 143.592 C 363.167 143.193,362.972 142.762,363.100 142.633 C 363.228 142.505,363.078 142.396,362.767 142.391 C 362.455 142.387,361.692 141.664,361.070 140.786 C 360.449 139.908,359.774 139.292,359.570 139.418 C 359.367 139.544,359.200 139.469,359.200 139.251 C 359.200 139.032,358.883 138.753,358.495 138.630 C 358.107 138.507,357.079 137.510,356.211 136.414 C 354.386 134.109,352.800 133.742,352.800 135.625 M160.400 167.182 L 160.400 186.764 161.319 187.683 C 161.825 188.188,162.359 188.917,162.507 189.301 C 162.654 189.685,162.961 190.000,163.187 190.000 C 163.414 190.000,163.600 190.262,163.600 190.582 C 163.600 190.902,164.050 191.614,164.600 192.164 C 165.150 192.714,165.607 193.307,165.615 193.482 C 165.653 194.281,168.271 196.823,168.816 196.590 C 169.137 196.452,171.200 194.006,173.400 191.153 C 179.973 182.629,180.643 181.764,189.822 169.952 C 201.728 154.630,200.875 155.838,200.591 154.707 C 200.457 154.172,199.909 153.262,199.374 152.685 C 198.838 152.107,198.400 151.539,198.400 151.422 C 198.400 150.738,196.861 149.600,195.935 149.600 C 195.337 149.600,194.749 149.442,194.630 149.248 C 194.510 149.054,188.289 148.763,180.806 148.600 C 173.323 148.437,167.200 148.146,167.200 147.952 C 167.200 147.758,165.670 147.600,163.800 147.600 L 160.400 147.600 160.400 167.182 M232.774 196.882 C 232.429 197.167,230.367 199.830,228.191 202.800 C 226.015 205.770,223.036 209.820,221.571 211.800 C 200.225 240.648,199.769 241.349,201.600 242.493 C 202.040 242.768,202.400 243.221,202.400 243.500 C 202.400 243.779,202.760 244.316,203.200 244.693 C 203.640 245.070,204.000 245.575,204.000 245.817 C 204.000 246.058,204.450 246.647,205.000 247.125 C 205.550 247.603,206.000 248.200,206.000 248.451 C 206.000 248.703,206.429 249.306,206.953 249.792 C 207.477 250.278,208.030 251.063,208.180 251.538 C 208.331 252.012,208.622 252.400,208.827 252.400 C 209.032 252.400,209.200 252.604,209.200 252.854 C 209.200 253.104,209.650 253.725,210.200 254.235 C 210.750 254.745,211.200 255.307,211.200 255.485 C 211.200 255.663,211.650 256.293,212.200 256.887 C 212.750 257.480,213.200 258.113,213.200 258.294 C 213.200 258.474,213.560 258.930,214.000 259.307 C 214.440 259.684,214.800 260.221,214.800 260.500 C 214.800 261.097,216.203 262.063,216.557 261.710 C 216.691 261.576,216.800 253.127,216.800 242.933 L 216.800 224.400 235.800 224.400 L 254.800 224.400 254.800 223.387 C 254.800 222.831,254.530 222.271,254.200 222.145 C 253.870 222.018,253.600 221.746,253.600 221.540 C 253.600 221.104,253.093 220.465,251.300 218.641 C 250.585 217.914,250.000 217.195,250.000 217.044 C 250.000 216.893,249.280 216.042,248.400 215.153 C 247.520 214.264,246.798 213.416,246.797 213.268 C 246.795 213.121,246.165 212.337,245.397 211.527 C 244.628 210.716,244.000 209.895,244.000 209.702 C 244.000 209.508,243.460 208.832,242.800 208.200 C 242.140 207.568,241.600 206.910,241.600 206.739 C 241.600 206.568,241.105 205.880,240.500 205.212 C 239.491 204.096,238.888 203.379,236.904 200.932 C 236.517 200.455,235.840 199.569,235.400 198.963 C 233.541 196.403,233.445 196.326,232.774 196.882 M316.975 227.372 C 316.549 227.907,315.930 228.734,315.600 229.210 C 315.270 229.685,314.591 230.553,314.091 231.137 C 313.592 231.722,312.802 232.740,312.337 233.400 C 311.871 234.060,310.515 235.410,309.324 236.400 C 308.132 237.390,306.909 238.425,306.607 238.700 C 306.305 238.975,305.886 239.200,305.678 239.200 C 305.469 239.200,305.083 239.458,304.821 239.774 C 304.559 240.090,303.817 240.464,303.172 240.606 C 302.528 240.748,302.000 241.029,302.000 241.232 C 302.000 241.434,301.751 241.600,301.446 241.600 C 301.141 241.600,300.376 241.869,299.746 242.198 C 299.116 242.526,298.105 242.796,297.500 242.798 C 296.895 242.799,296.400 242.959,296.400 243.154 C 296.400 243.487,292.629 244.180,291.100 244.128 C 290.715 244.115,290.400 244.261,290.400 244.452 C 290.400 244.643,288.060 244.800,285.200 244.800 C 282.000 244.800,280.000 244.646,280.000 244.400 C 280.000 244.180,279.865 244.036,279.700 244.081 C 278.991 244.271,274.400 243.530,274.400 243.225 C 274.400 243.040,273.731 242.764,272.914 242.610 C 272.096 242.457,270.971 242.031,270.414 241.665 C 269.856 241.298,268.533 240.548,267.474 239.999 C 266.414 239.450,265.199 238.678,264.774 238.284 C 264.348 237.891,264.000 237.658,264.000 237.766 C 264.000 237.875,263.505 237.509,262.900 236.954 C 262.295 236.399,261.515 235.687,261.166 235.372 C 260.494 234.765,231.160 234.492,227.056 235.054 L 225.200 235.309 225.200 255.822 L 225.200 276.336 227.633 278.468 C 228.971 279.641,230.906 281.363,231.933 282.296 C 232.960 283.228,234.006 283.993,234.257 283.996 C 234.509 283.998,234.818 284.270,234.945 284.600 C 235.071 284.930,235.368 285.200,235.605 285.200 C 235.841 285.200,236.520 285.650,237.113 286.200 C 237.707 286.750,238.404 287.200,238.663 287.200 C 238.921 287.200,239.193 287.335,239.267 287.500 C 239.340 287.665,239.985 288.115,240.700 288.500 C 241.415 288.885,242.585 289.515,243.300 289.900 C 244.015 290.285,244.690 290.711,244.800 290.846 C 244.910 290.981,245.450 291.231,246.000 291.400 C 246.550 291.569,247.090 291.828,247.200 291.975 C 247.465 292.329,250.214 293.600,250.715 293.600 C 250.931 293.600,251.624 293.869,252.254 294.198 C 252.884 294.526,253.715 294.796,254.100 294.798 C 254.485 294.799,254.800 294.960,254.800 295.155 C 254.800 295.350,255.636 295.635,256.659 295.788 C 257.681 295.941,258.806 296.210,259.159 296.384 C 260.460 297.029,262.800 297.637,264.871 297.870 C 266.042 298.002,267.195 298.262,267.433 298.449 C 267.672 298.635,269.697 298.907,271.933 299.054 C 274.170 299.200,276.000 299.473,276.000 299.660 C 276.000 299.847,280.950 300.000,287.000 300.000 C 293.050 300.000,298.000 299.846,298.000 299.658 C 298.000 299.469,299.475 299.192,301.278 299.042 C 303.081 298.891,304.746 298.616,304.978 298.429 C 305.210 298.242,306.345 297.963,307.500 297.807 C 308.654 297.652,309.700 297.362,309.823 297.163 C 309.946 296.963,310.487 296.800,311.024 296.800 C 311.561 296.800,312.000 296.640,312.000 296.445 C 312.000 296.250,312.810 295.969,313.800 295.821 C 314.790 295.672,315.600 295.398,315.600 295.211 C 315.600 295.023,316.320 294.749,317.200 294.600 C 318.080 294.451,318.800 294.186,318.800 294.009 C 318.800 293.833,319.417 293.573,320.171 293.432 C 320.925 293.290,321.600 293.040,321.671 292.875 C 321.821 292.527,327.049 290.000,327.618 290.000 C 327.828 290.000,328.000 289.820,328.000 289.600 C 328.000 289.380,328.270 289.200,328.600 289.200 C 328.930 289.200,329.200 289.020,329.200 288.800 C 329.200 288.580,329.409 288.400,329.665 288.400 C 330.204 288.400,334.135 285.964,334.333 285.507 C 334.407 285.338,334.727 285.200,335.046 285.200 C 335.364 285.200,335.729 284.930,335.855 284.600 C 335.982 284.270,336.323 284.000,336.614 284.000 C 336.905 284.000,337.381 283.763,337.671 283.473 C 337.962 283.184,338.740 282.599,339.400 282.173 C 340.866 281.228,342.204 280.152,343.716 278.700 C 344.346 278.095,344.938 277.600,345.031 277.600 C 345.124 277.600,345.532 277.285,345.938 276.900 C 346.344 276.515,347.520 275.413,348.551 274.452 C 349.582 273.490,351.095 271.883,351.913 270.880 C 352.731 269.878,354.007 268.465,354.748 267.742 C 357.399 265.154,357.713 265.200,337.413 265.200 L 319.200 265.200 319.200 245.800 C 319.200 224.613,319.196 224.583,316.975 227.372 " stroke="none" fill="#e4742c" fill-rule="evenodd"></path><path id="path3" d="M273.432 100.348 C 273.314 100.539,271.777 100.821,270.016 100.974 C 268.255 101.128,266.723 101.401,266.612 101.580 C 266.501 101.760,265.418 102.030,264.205 102.182 C 262.992 102.334,262.000 102.625,262.000 102.829 C 262.000 103.033,261.550 103.200,261.000 103.200 C 260.450 103.200,260.000 103.360,260.000 103.555 C 260.000 103.750,259.190 104.031,258.200 104.179 C 257.210 104.328,256.400 104.618,256.400 104.825 C 256.400 105.031,256.112 105.200,255.760 105.200 C 255.409 105.200,254.464 105.488,253.660 105.839 C 249.729 107.559,249.209 107.819,249.205 108.068 C 249.202 108.216,248.660 108.455,248.000 108.600 C 247.340 108.745,246.800 109.015,246.800 109.200 C 246.800 109.385,246.260 109.655,245.600 109.800 C 244.941 109.945,244.176 110.383,243.900 110.774 C 243.625 111.165,242.950 111.627,242.400 111.800 C 241.511 112.080,238.929 113.787,238.400 114.444 C 238.290 114.580,237.795 114.819,237.300 114.973 C 236.805 115.128,236.400 115.422,236.400 115.627 C 236.400 115.832,236.139 116.000,235.820 116.000 C 235.501 116.000,235.096 116.229,234.920 116.510 C 234.744 116.790,234.073 117.355,233.430 117.765 C 232.786 118.175,231.865 118.936,231.384 119.455 C 230.902 119.975,230.334 120.400,230.120 120.400 C 229.907 120.400,229.282 120.895,228.731 121.500 C 228.180 122.105,227.205 123.087,226.565 123.682 C 225.924 124.277,224.909 125.267,224.308 125.882 C 223.708 126.497,222.718 127.491,222.108 128.092 C 219.432 130.729,216.800 133.520,216.800 133.721 C 216.800 133.841,215.765 135.027,214.500 136.356 C 209.429 141.685,207.917 141.200,229.600 141.200 L 248.000 141.200 248.000 157.200 C 248.000 174.759,248.015 174.857,250.325 172.200 C 250.803 171.650,251.400 171.200,251.650 171.200 C 251.901 171.200,252.700 170.570,253.426 169.800 C 254.152 169.030,254.898 168.400,255.084 168.400 C 255.270 168.400,255.720 168.085,256.083 167.700 C 256.977 166.753,257.916 166.000,258.202 166.000 C 258.332 166.000,258.835 165.585,259.319 165.078 C 259.804 164.571,260.830 163.721,261.600 163.189 C 262.370 162.657,263.356 161.895,263.792 161.495 C 264.228 161.096,264.993 160.666,265.492 160.541 C 265.991 160.416,266.400 160.152,266.400 159.955 C 266.400 159.759,267.120 159.286,268.000 158.904 C 268.880 158.523,269.600 158.088,269.600 157.937 C 269.600 157.787,270.140 157.545,270.800 157.400 C 271.460 157.255,272.000 156.973,272.000 156.773 C 272.000 156.573,272.720 156.294,273.600 156.154 C 274.480 156.013,275.200 155.754,275.200 155.578 C 275.200 155.402,276.190 155.134,277.400 154.983 C 278.610 154.832,279.600 154.549,279.600 154.354 C 279.600 154.159,282.210 154.000,285.400 154.000 C 288.590 154.000,291.200 154.157,291.200 154.348 C 291.200 154.540,292.456 154.820,293.991 154.972 C 295.526 155.123,296.880 155.406,297.000 155.600 C 297.120 155.795,298.024 156.075,299.009 156.222 C 299.994 156.370,300.800 156.636,300.800 156.814 C 300.800 156.991,301.340 157.255,302.000 157.400 C 302.660 157.545,303.200 157.829,303.200 158.032 C 303.200 158.244,306.672 158.400,311.400 158.400 C 315.910 158.400,319.600 158.249,319.600 158.064 C 319.600 157.879,324.933 157.606,331.451 157.456 C 337.970 157.306,343.460 157.087,343.651 156.968 C 344.141 156.665,344.093 147.705,343.600 147.400 C 343.347 147.244,343.200 142.596,343.200 134.776 C 343.200 126.792,343.058 122.400,342.800 122.400 C 342.580 122.400,342.400 122.040,342.400 121.600 C 342.400 121.160,342.170 120.800,341.889 120.800 C 341.608 120.800,341.080 120.485,340.717 120.100 C 339.713 119.036,338.873 118.400,338.473 118.400 C 338.274 118.400,337.774 117.950,337.361 117.400 C 336.948 116.850,336.396 116.400,336.134 116.400 C 335.872 116.400,335.412 116.175,335.112 115.900 C 334.327 115.181,333.106 114.413,332.328 114.149 C 331.958 114.024,331.559 113.669,331.440 113.361 C 331.322 113.052,330.949 112.800,330.613 112.800 C 330.276 112.800,330.000 112.620,330.000 112.400 C 330.000 112.180,329.649 112.000,329.220 112.000 C 328.791 112.000,328.296 111.765,328.120 111.478 C 327.944 111.192,327.080 110.642,326.200 110.257 C 325.320 109.872,324.122 109.296,323.538 108.978 C 322.954 108.660,322.099 108.400,321.638 108.400 C 321.177 108.400,320.800 108.220,320.800 108.000 C 320.800 107.780,320.530 107.600,320.200 107.600 C 319.870 107.600,319.600 107.422,319.600 107.205 C 319.600 106.987,318.880 106.694,318.000 106.554 C 317.120 106.413,316.400 106.157,316.400 105.984 C 316.400 105.811,315.680 105.549,314.800 105.400 C 313.920 105.251,313.200 104.986,313.200 104.811 C 313.200 104.636,312.210 104.368,311.000 104.217 C 309.790 104.066,308.800 103.775,308.800 103.571 C 308.800 103.367,308.271 103.200,307.624 103.200 C 306.977 103.200,306.341 103.028,306.211 102.818 C 306.082 102.609,304.901 102.315,303.588 102.167 C 302.275 102.018,301.200 101.755,301.200 101.582 C 301.200 101.409,299.220 101.139,296.800 100.982 C 294.380 100.825,292.400 100.540,292.400 100.349 C 292.400 99.894,273.714 99.893,273.432 100.348 M352.877 134.030 C 352.956 134.267,353.191 134.460,353.400 134.460 C 353.609 134.460,353.845 134.267,353.923 134.030 C 354.002 133.793,353.767 133.600,353.400 133.600 C 353.033 133.600,352.798 133.793,352.877 134.030 M354.585 134.858 C 354.413 135.156,354.412 135.274,354.583 135.119 C 354.755 134.965,355.524 135.595,356.293 136.519 C 357.061 137.444,357.985 138.365,358.345 138.566 C 358.705 138.767,359.132 139.127,359.294 139.366 C 359.496 139.665,359.590 139.650,359.594 139.316 C 359.597 139.049,359.321 138.599,358.979 138.316 C 358.638 138.032,357.580 137.016,356.629 136.058 C 355.331 134.752,354.820 134.452,354.585 134.858 M361.702 141.615 C 361.972 142.047,362.323 142.400,362.484 142.400 C 362.967 142.400,362.380 141.278,361.775 141.046 C 361.311 140.868,361.298 140.968,361.702 141.615 M364.243 144.567 C 364.376 144.915,364.661 145.200,364.876 145.200 C 365.402 145.200,365.073 144.291,364.475 144.092 C 364.182 143.994,364.093 144.177,364.243 144.567 M353.200 155.200 C 353.200 160.553,353.302 164.831,353.427 164.706 C 353.698 164.435,353.659 145.925,353.387 145.654 C 353.284 145.551,353.200 149.847,353.200 155.200 M366.000 146.539 C 366.000 146.817,367.502 148.400,367.766 148.400 C 368.133 148.400,366.679 146.428,366.300 146.413 C 366.135 146.406,366.000 146.462,366.000 146.539 M368.400 150.024 C 368.400 150.257,368.561 150.348,368.758 150.226 C 368.955 150.104,369.229 150.299,369.368 150.660 C 369.506 151.020,369.730 151.203,369.866 151.067 C 370.157 150.776,369.263 149.600,368.751 149.600 C 368.558 149.600,368.400 149.791,368.400 150.024 M370.894 153.207 C 371.766 154.735,372.400 155.237,372.400 154.400 C 372.400 154.180,372.223 154.000,372.008 154.000 C 371.792 154.000,371.506 153.563,371.372 153.029 C 371.237 152.495,370.871 151.959,370.558 151.839 C 370.165 151.688,370.269 152.113,370.894 153.207 M372.400 155.447 C 372.400 155.667,372.664 156.196,372.987 156.624 C 373.310 157.051,373.575 157.220,373.575 157.000 C 373.575 156.780,373.310 156.251,372.987 155.824 C 372.664 155.396,372.400 155.227,372.400 155.447 M374.813 159.654 C 374.806 159.794,375.069 160.424,375.398 161.054 C 375.726 161.684,375.996 161.919,375.998 161.576 C 376.000 160.990,374.840 159.108,374.813 159.654 M376.806 163.900 C 376.824 164.777,377.588 165.359,377.594 164.500 C 377.597 164.005,377.420 163.600,377.200 163.600 C 376.980 163.600,376.803 163.735,376.806 163.900 M348.600 168.400 L 347.000 168.686 348.900 168.743 C 349.945 168.774,350.800 168.620,350.800 168.400 C 350.800 168.180,350.665 168.026,350.500 168.057 C 350.335 168.088,349.480 168.242,348.600 168.400 M352.100 168.276 C 352.485 168.376,353.115 168.376,353.500 168.276 C 353.885 168.175,353.570 168.093,352.800 168.093 C 352.030 168.093,351.715 168.175,352.100 168.276 M335.600 168.711 C 335.600 168.881,336.320 168.952,337.200 168.869 C 338.080 168.785,338.800 168.645,338.800 168.558 C 338.800 168.471,338.080 168.400,337.200 168.400 C 336.320 168.400,335.600 168.540,335.600 168.711 M324.505 169.487 C 325.114 169.579,326.014 169.577,326.505 169.482 C 326.997 169.387,326.500 169.311,325.400 169.314 C 324.300 169.317,323.897 169.395,324.505 169.487 M380.199 172.850 C 380.594 174.718,381.075 175.107,380.875 173.396 C 380.785 172.624,380.532 171.882,380.313 171.746 C 380.058 171.589,380.017 171.987,380.199 172.850 M319.687 173.994 C 322.353 176.511,322.228 176.385,323.431 177.745 C 323.988 178.374,324.548 178.786,324.674 178.659 C 324.963 178.371,318.576 172.000,317.999 172.000 C 317.765 172.000,318.525 172.897,319.687 173.994 M328.006 185.100 C 328.024 185.977,328.788 186.559,328.794 185.700 C 328.797 185.205,328.620 184.800,328.400 184.800 C 328.180 184.800,328.003 184.935,328.006 185.100 M383.600 187.376 C 383.600 188.133,383.738 188.838,383.907 188.943 C 384.076 189.047,384.148 188.428,384.065 187.566 C 383.881 185.632,383.600 185.518,383.600 187.376 M330.428 195.300 C 330.413 195.905,330.580 196.400,330.800 196.400 C 331.269 196.400,331.269 196.093,330.800 195.000 C 330.495 194.291,330.453 194.325,330.428 195.300 M384.600 201.400 C 384.600 205.030,384.735 208.000,384.900 208.000 C 385.065 208.000,385.200 205.030,385.200 201.400 C 385.200 197.770,385.065 194.800,384.900 194.800 C 384.735 194.800,384.600 197.770,384.600 201.400 M328.514 212.900 C 328.504 213.175,328.357 213.760,328.189 214.200 C 327.979 214.748,328.013 214.874,328.296 214.600 C 328.882 214.034,329.326 212.400,328.894 212.400 C 328.695 212.400,328.525 212.625,328.514 212.900 M383.867 213.067 C 383.720 213.213,383.600 214.077,383.600 214.987 C 383.600 215.896,383.375 216.879,383.100 217.170 C 382.696 217.598,382.716 217.665,383.200 217.518 C 383.595 217.399,383.881 216.595,384.036 215.168 C 384.290 212.836,384.275 212.658,383.867 213.067 M378.302 233.000 C 378.197 233.550,378.266 234.000,378.455 234.000 C 378.645 234.000,378.800 233.835,378.800 233.633 C 378.800 233.431,378.909 232.981,379.043 232.633 C 379.176 232.285,379.107 232.000,378.889 232.000 C 378.672 232.000,378.407 232.450,378.302 233.000 M375.285 239.613 C 374.708 240.536,374.679 240.800,375.153 240.800 C 375.475 240.800,376.102 239.168,375.869 238.936 C 375.814 238.881,375.552 239.186,375.285 239.613 M328.154 249.600 C 328.154 252.350,328.218 253.475,328.296 252.100 C 328.374 250.725,328.374 248.475,328.296 247.100 C 328.218 245.725,328.154 246.850,328.154 249.600 M369.329 249.700 C 368.884 250.195,368.384 250.870,368.219 251.200 C 368.055 251.530,368.478 251.191,369.160 250.446 C 369.842 249.701,370.400 249.026,370.400 248.946 C 370.400 248.630,370.105 248.838,369.329 249.700 " stroke="none" fill="#e46917" fill-rule="evenodd"></path><path id="path4" d="M46.167 133.900 C 46.340 134.208,46.203 134.400,45.811 134.400 C 45.461 134.400,45.072 134.669,44.946 134.998 C 44.819 135.326,44.575 135.508,44.404 135.402 C 44.232 135.296,43.988 135.604,43.861 136.087 C 43.735 136.570,43.529 136.862,43.403 136.736 C 43.209 136.542,42.281 137.281,40.061 139.400 C 38.680 140.717,34.799 144.964,34.794 145.163 C 34.779 145.723,32.483 147.953,32.192 147.690 C 32.016 147.530,31.992 147.610,32.139 147.866 C 32.286 148.123,31.819 148.923,31.103 149.645 C 30.386 150.367,30.070 150.801,30.400 150.610 C 30.827 150.363,30.798 150.494,30.300 151.063 C 29.915 151.503,29.600 152.084,29.600 152.355 C 29.600 152.626,29.439 152.748,29.243 152.626 C 29.046 152.505,28.783 152.813,28.658 153.311 C 28.533 153.809,28.019 154.658,27.515 155.199 C 27.012 155.739,26.635 156.275,26.678 156.391 C 26.850 156.851,25.050 159.955,24.727 159.755 C 24.536 159.637,24.419 159.689,24.466 159.870 C 24.633 160.510,23.932 162.800,23.568 162.800 C 23.366 162.800,23.200 162.967,23.200 163.172 C 23.200 163.377,22.660 164.711,22.000 166.137 C 21.340 167.563,20.800 169.090,20.800 169.531 C 20.800 169.972,20.612 170.396,20.382 170.473 C 20.152 170.549,19.934 171.014,19.897 171.506 C 19.860 171.998,19.699 172.400,19.540 172.400 C 19.380 172.400,19.252 172.715,19.255 173.100 C 19.258 173.485,19.051 174.520,18.795 175.400 C 18.539 176.280,18.146 177.900,17.922 179.000 C 17.698 180.100,17.354 181.313,17.158 181.695 C 16.961 182.077,16.800 182.921,16.800 183.571 C 16.800 184.221,16.646 184.848,16.457 184.965 C 16.268 185.082,16.152 186.082,16.200 187.189 C 16.247 188.295,16.159 189.200,16.004 189.200 C 15.848 189.200,15.562 191.135,15.366 193.500 C 14.953 198.488,14.880 207.997,15.256 207.765 C 15.501 207.614,15.988 212.099,16.076 215.300 C 16.098 216.125,16.271 216.800,16.458 216.800 C 16.646 216.800,16.802 217.295,16.804 217.900 C 16.807 218.505,17.076 219.881,17.402 220.957 C 17.729 222.033,18.034 223.416,18.081 224.029 C 18.128 224.643,18.286 225.070,18.433 224.980 C 18.580 224.889,18.816 225.539,18.958 226.425 C 19.099 227.310,19.392 228.387,19.608 228.817 C 19.823 229.248,20.180 229.958,20.400 230.395 C 20.620 230.832,20.800 231.405,20.800 231.668 C 20.800 231.932,21.149 232.879,21.576 233.774 C 22.003 234.668,22.408 235.663,22.476 235.984 C 22.544 236.306,22.906 236.915,23.280 237.338 C 23.654 237.762,24.073 238.624,24.212 239.254 C 24.350 239.884,24.629 240.400,24.832 240.400 C 25.034 240.400,25.200 240.738,25.200 241.151 C 25.200 241.564,25.470 242.126,25.800 242.400 C 26.130 242.674,26.400 243.146,26.400 243.449 C 26.400 243.752,26.591 244.000,26.824 244.000 C 27.057 244.000,27.136 244.180,27.000 244.400 C 26.864 244.620,26.943 244.800,27.176 244.800 C 27.409 244.800,27.600 245.070,27.600 245.400 C 27.600 245.730,27.780 246.000,28.000 246.000 C 28.220 246.000,28.400 246.191,28.400 246.424 C 28.400 246.657,29.027 247.669,29.793 248.673 C 30.560 249.677,31.072 250.684,30.932 250.911 C 30.791 251.138,30.839 251.224,31.038 251.102 C 31.237 250.980,32.210 251.931,33.200 253.216 L 35.000 255.552 53.051 255.576 C 67.962 255.596,71.182 255.504,71.562 255.046 C 72.335 254.115,71.916 212.400,71.133 212.400 C 70.950 212.400,70.800 212.040,70.800 211.600 C 70.800 211.160,70.642 210.800,70.450 210.800 C 69.705 210.800,68.508 197.541,69.135 196.237 C 69.356 195.777,69.647 194.054,69.780 192.409 C 69.913 190.764,70.197 189.243,70.411 189.029 C 70.625 188.815,70.801 188.271,70.802 187.820 C 70.804 187.369,71.074 186.484,71.402 185.854 C 71.731 185.224,72.000 184.459,72.000 184.154 C 72.000 183.849,72.180 183.600,72.400 183.600 C 72.620 183.600,72.800 183.373,72.800 183.095 C 72.800 181.611,78.126 174.983,78.922 175.476 C 79.143 175.612,79.203 175.529,79.056 175.291 C 78.909 175.052,79.142 174.745,79.574 174.608 C 80.006 174.471,80.475 173.995,80.616 173.549 C 80.757 173.104,80.964 172.830,81.074 172.941 C 81.272 173.138,83.600 170.693,83.600 170.287 C 83.600 169.715,67.033 168.750,55.500 168.651 C 52.255 168.623,49.600 168.465,49.600 168.300 C 49.600 168.135,48.764 168.000,47.742 168.000 L 45.884 168.000 46.155 165.300 C 46.894 157.929,47.167 134.611,46.521 134.000 C 46.173 133.670,46.013 133.625,46.167 133.900 M56.137 151.000 C 56.139 152.760,56.209 153.430,56.293 152.489 C 56.378 151.549,56.377 150.109,56.291 149.289 C 56.205 148.470,56.136 149.240,56.137 151.000 M80.934 230.400 C 80.934 232.050,81.005 232.725,81.091 231.900 C 81.178 231.075,81.178 229.725,81.091 228.900 C 81.005 228.075,80.934 228.750,80.934 230.400 " stroke="none" fill="#2cb4e4" fill-rule="evenodd"></path></g></svg>